Coordinates
version=1
nRows=11
nColumns=63
inDegrees=yes

Units are S.I. units (second, meters, Newtons, ...)
If the header above contains a line with 'inDegrees', this indicates whether rotational values are in degrees (yes) or radians (no).

endheader
time	pelvis_tilt	pelvis_list	pelvis_rotation	pelvis_tx	pelvis_ty	pelvis_tz	hip_flexion_r	hip_adduction_r	hip_rotation_r	knee_angle_r	knee_angle_r_beta	ankle_angle_r	subtalar_angle_r	mtp_angle_r	hip_flexion_l	hip_adduction_l	hip_rotation_l	knee_angle_l	knee_angle_l_beta	ankle_angle_l	subtalar_angle_l	mtp_angle_l	L5_S1_Flex_Ext	L5_S1_Lat_Bending	L5_S1_axial_rotation	L4_L5_Flex_Ext	L4_L5_Lat_Bending	L4_L5_axial_rotation	L3_L4_Flex_Ext	L3_L4_Lat_Bending	L3_L4_axial_rotation	L2_L3_Flex_Ext	L2_L3_Lat_Bending	L2_L3_axial_rotation	L1_L2_Flex_Ext	L1_L2_Lat_Bending	L1_L2_axial_rotation	L1_T12_Flex_Ext	L1_T12_Lat_Bending	L1_T12_axial_rotation	Abs_r3	Abs_r2	Abs_r1	Abs_t1	Abs_t2	neck_flexion	neck_bending	neck_rotation	arm_flex_r	arm_add_r	arm_rot_r	elbow_flex_r	pro_sup_r	wrist_flex_r	wrist_dev_r	arm_flex_l	arm_add_l	arm_rot_l	elbow_flex_l	pro_sup_l	wrist_flex_l	wrist_dev_l
      1.30000000	     20.78626332	      2.89393980	     30.84270876	     -1.70432728	      0.77359287	      0.25866142	     36.72499812	    -10.74693454	    -39.89181382	      0.01633040	      0.00028502	    -59.80020070	      3.07339422	      0.00000000	     36.39635921	     15.22677589	    -39.76161590	      0.02854532	      0.00049821	    -64.74260124	     11.88452513	      0.00000000	      0.19507412	     -0.28514224	     -5.06386062	      0.36227215	     -0.37923918	     -5.38035191	      0.32048727	     -0.69329484	     -5.38035191	      0.22295021	     -0.69329484	     -4.43087804	      0.18114583	     -0.58146205	     -4.11438675	      0.11146535	     -0.44168533	     -3.79789547	      1.39339494	     -3.22558602	    -28.16367361	      0.00000000	      0.00000000	      0.00000000	      0.00000000	      0.00000001	    -88.06831394	    -27.97304209	     -5.74929698	     94.14120142	     50.65828946	      0.00000000	      4.69285663	    -84.24544735	      3.79359988	    -19.94365991	    108.34125784	     46.05157463	      0.00000000	      4.69285663
      1.33333333	     20.66549020	      2.72317009	     23.82561195	     -1.68016653	      0.78068539	      0.27038475	     37.46473800	     -5.87415154	    -39.88555396	      0.01645976	      0.00028728	    -59.70147217	      4.82426448	      0.00000000	     37.49788333	     10.95169958	    -39.81117199	      0.02478259	      0.00043254	    -63.50998647	     10.43119896	      0.00000000	      0.17715116	     -0.25092015	     -3.70409932	      0.32898741	     -0.33372380	     -3.93560553	      0.29104163	     -0.61008725	     -3.93560553	      0.20246606	     -0.61008725	     -3.24108691	      0.16450256	     -0.51167637	     -3.00958070	      0.10122417	     -0.38867531	     -2.77807449	      1.26537300	     -2.83845890	    -20.60108920	      0.00000000	      0.00000000	      0.00000000	      0.00000000	      0.00000001	    -84.20174431	    -30.37913729	     -4.97040943	     96.35981560	     50.86525584	      0.00000000	      4.69703400	    -83.76585419	      4.73777581	    -20.77648479	    108.46550163	     46.12619827	      0.00000000	      4.69703400
      1.36666667	     20.50037054	      2.63346620	     15.50212116	     -1.65668631	      0.78701307	      0.28385876	     37.78482138	     -0.30115009	    -39.87523280	      0.01713812	      0.00029912	    -59.92082287	      6.83016681	      0.00000000	     38.20333918	      5.84888485	    -39.84453487	      0.02228774	      0.00038899	    -62.24827914	      8.63378889	      0.00000000	      0.16059144	     -0.21716586	     -2.12768151	      0.29823437	     -0.28883060	     -2.26066160	      0.26383568	     -0.52801708	     -2.26066160	      0.18353996	     -0.52801708	     -1.86172132	      0.14912521	     -0.44284463	     -1.72874123	      0.09176195	     -0.33638992	     -1.59576113	      1.14708862	     -2.45662370	    -11.83352625	      0.00000000	      0.00000000	      0.00000000	      0.00000000	      0.00000001	    -80.17358503	    -32.95741432	     -4.57273809	     98.60796647	     51.03894681	      0.00000000	      4.70133628	    -83.46560047	      4.10822758	    -20.00555417	    108.29964248	     46.32077160	      0.00000000	      4.70133628
      1.40000000	     20.28385136	      2.54115610	      6.46953718	     -1.63442066	      0.79205842	      0.29839878	     37.47986658	      5.60396848	    -39.85876326	      0.01846809	      0.00032233	    -60.52810702	      8.90196961	      0.00000000	     38.31091165	      0.20702101	    -39.86621793	      0.02089689	      0.00036472	    -61.18190835	      6.55163051	      0.00000000	      0.14777340	     -0.17982183	     -0.43947978	      0.27442999	     -0.23916304	     -0.46694727	      0.24277693	     -0.43721881	     -0.46694727	      0.16889022	     -0.43721881	     -0.38454481	      0.13722238	     -0.36669268	     -0.35707732	      0.08443772	     -0.27854402	     -0.32960984	      1.05553065	     -2.03418055	     -2.44425470	      0.00000000	      0.00000000	      0.00000000	      0.00000000	      0.00000001	    -76.05925239	    -35.58798280	     -4.49069717	    100.64938685	     51.15569766	      0.00000000	      4.70510470	    -83.33886376	      1.91998798	    -17.73614739	    107.78135029	     46.59902260	      0.00000000	      4.70510470
      1.43333333	     20.01212061	      2.43900237	     -2.54248337	     -1.61337981	      0.79565255	      0.31299798	     36.46523609	     11.32962028	    -39.83355665	      0.02065894	      0.00036057	    -61.43043882	     10.86081164	      0.00000000	     37.73590929	     -5.48646969	    -39.87947605	      0.02034154	      0.00035503	    -60.42925650	      4.29912369	      0.00000000	      0.13884285	     -0.14219611	      1.25366662	      0.25784506	     -0.18912082	      1.33202078	      0.22810492	     -0.34573561	      1.33202078	      0.15868350	     -0.34573561	      1.09695829	      0.12892947	     -0.28996630	      1.01860413	      0.07933481	     -0.22026177	      0.94024996	      0.99174062	     -1.60855079	      6.97251763	      0.00000000	      0.00000000	      0.00000000	      0.00000000	      0.00000001	    -71.93217964	    -37.73102949	     -4.84697651	    102.20490733	     51.33515960	      0.00000000	      4.71502367	    -83.31833558	     -2.06471823	    -13.88673272	    107.11985978	     47.11851312	      0.00000000	      4.71502367
      1.46666667	     19.70092031	      2.17960953	    -10.99879748	     -1.59339810	      0.79771814	      0.32638173	     34.80711655	     16.61015414	    -39.79488447	      0.02403137	      0.00041943	    -62.55100589	     12.63469412	      0.00000000	     36.54048088	    -10.94986489	    -39.88686255	      0.02034131	      0.00035502	    -60.03537520	      2.04305802	      0.00000000	      0.13318003	     -0.09003485	      2.80699008	      0.24732863	     -0.11974635	      2.98242696	      0.21880147	     -0.21891072	      2.98242696	      0.15221145	     -0.21891072	      2.45611632	      0.12367097	     -0.18359906	      2.28067944	      0.07609907	     -0.13946398	      2.10524256	      0.95129162	     -1.01849219	     15.61163674	      0.00000000	      0.00000000	      0.00000000	      0.00000000	      0.00000001	    -67.55751648	    -40.28863926	     -4.58641685	    103.46082425	     51.47933888	      0.00000000	      4.72368066	    -83.14152687	     -5.99448434	     -9.96476897	    106.17986902	     47.53860391	      0.00000000	      4.72368066
      1.50000000	     19.28170677	      1.75415765	    -18.45172012	     -1.57396620	      0.79813216	      0.33771184	     32.76271772	     21.20249506	    -39.73633274	      0.02900711	      0.00050627	    -63.72113008	     14.18500962	      0.00000000	     34.98775438	    -15.88440664	    -39.89006040	      0.02059553	      0.00035946	    -59.99155468	     -0.11902148	      0.00000000	      0.13337714	     -0.02207400	      4.14002437	      0.24769468	     -0.02935842	      4.39877589	      0.21912530	     -0.05367073	      4.39877589	      0.15243673	     -0.05367073	      3.62252132	      0.12385401	     -0.04501331	      3.36376980	      0.07621170	     -0.03419263	      3.10501828	      0.95269955	     -0.24970553	     23.02557353	      0.00000000	      0.00000000	      0.00000000	      0.00000000	      0.00000001	    -62.84281354	    -42.95537296	     -3.67889657	    104.36586566	     51.59558312	      0.00000000	      4.72930537	    -82.73116726	     -8.93214216	     -6.67144477	    104.98959642	     47.81415613	      0.00000000	      4.72930537
      1.53333333	     18.71702365	      1.18488192	    -24.56358260	     -1.55470728	      0.79703947	      0.34653558	     30.66084681	     24.99420383	    -39.64836227	      0.03587994	      0.00062622	    -64.80895761	     15.50630871	      0.00000000	     33.40659382	    -20.10991307	    -39.89023237	      0.02085891	      0.00036406	    -60.21259417	     -2.01869764	      0.00000000	      0.13740709	      0.06052869	      5.16729000	      0.25517871	      0.08050316	      5.49024563	      0.22574612	      0.14716945	      5.49024563	      0.15704257	      0.14716945	      4.52137875	      0.12759623	      0.12343010	      4.19842313	      0.07851441	      0.09375894	      3.87546750	      0.98148513	      0.68471263	     28.73891681	      0.00000000	      0.00000000	      0.00000000	      0.00000000	      0.00000001	    -57.44177777	    -45.82097272	     -1.64596906	    104.87056908	     51.77762175	      0.00000000	      4.73897445	    -81.98280076	    -10.20655738	     -4.39933608	    103.34333031	     47.97732442	      0.00000000	      4.73897445
      1.56666667	     18.00668138	      0.57961826	    -29.26058676	     -1.53520741	      0.79464291	      0.35303324	     28.80201678	     27.97962576	    -39.52290197	      0.04488507	      0.00078339	    -65.69622986	     16.62341644	      0.00000000	     32.08730739	    -23.57130340	    -39.88826774	      0.02100932	      0.00036668	    -60.63059682	     -3.56724153	      0.00000000	      0.14373631	      0.14512838	      5.87320396	      0.26693271	      0.19302074	      6.24027920	      0.23614439	      0.35286514	      6.24027920	      0.16427623	      0.35286514	      5.13905346	      0.13347354	      0.29594579	      4.77197821	      0.08213093	      0.22480386	      4.40490297	      1.02669412	      1.64172122	     32.66499844	      0.00000000	      0.00000000	      0.00000000	      0.00000000	      0.00000001	    -51.27141706	    -48.58451144	      1.54338183	    104.95806858	     52.02136853	      0.00000000	      4.74928415	    -80.96523465	     -9.91799622	     -3.25458590	    101.31377134	     48.04529689	      0.00000000	      4.74928415
      1.60000000	     17.31203769	      0.31297534	    -32.08915829	     -1.51466103	      0.79168627	      0.35694744	     27.57940049	     29.67819867	    -39.38754726	      0.05567828	      0.00097177	    -66.22146197	     17.64324731	      0.00000000	     31.41004353	    -25.70725272	    -39.88433845	      0.02107675	      0.00036786	    -61.09317846	     -4.65737843	      0.00000000	      0.14651572	      0.18268086	      6.21919657	      0.27209435	      0.24296555	      6.60789636	      0.24071068	      0.44417025	      6.60789636	      0.16745282	      0.44417025	      5.44179700	      0.13605450	      0.37252282	      5.05309721	      0.08371908	      0.28297266	      4.66439743	      1.04654717	      2.06652246	     34.58930557	      0.00000000	      0.00000000	      0.00000000	      0.00000000	      0.00000001	    -44.61690578	    -50.43788889	      5.46520870	    104.55453557	     52.31664312	      0.00000000	      4.76141256	    -79.59252975	     -9.02956193	     -2.88749929	     99.06958698	     48.10305509	      0.00000000	      4.76141256
      1.63333333	     16.78083659	      0.63810298	    -33.06078470	     -1.49234182	      0.78915594	      0.35851999	     27.15019289	     29.89383322	    -39.30485670	      0.06935896	      0.00121054	    -66.35900263	     18.68180142	      0.00000000	     31.48190843	    -26.26155906	    -39.88007939	      0.02110471	      0.00036835	    -61.40647831	     -5.25346360	      0.00000000	      0.14137923	      0.13867916	      6.32086861	      0.26255538	      0.18444328	      6.71592290	      0.23227194	      0.33718450	      6.71592290	      0.16158233	      0.33718450	      5.53076004	      0.13128476	      0.28279454	      5.13570575	      0.08078409	      0.21481401	      4.74065146	      1.00985773	      1.56876636	     35.15477498	      0.00000000	      0.00000000	      0.00000000	      0.00000000	      0.00000001	    -39.40908127	    -49.95086686	      7.64809414	    103.57397940	     52.47857796	      0.00000000	      4.76647228	    -77.59269733	     -9.09454953	     -2.45175798	     96.77790723	     48.18049075	      0.00000000	      4.76647228
